<svg xmlns="http://www.w3.org/2000/svg"><symbol id="mecha-stilts" viewBox="0 0 189.8 219.2"><path d="M107.3 149.2h18v11.34h-18zm-15.1 0h11.5v11.34H92.2zm-21.6 0h18v11.34h-18zm27.3-75.1c-21.1 0-38.7 12.8-39.6 36h79.2c-.9-23.2-18.5-36-39.6-36zm-42.5 75.1h11.5v11.34H55.4z"/><path d="M94.9 0L0 54.8v109.6l94.9 54.8 94.9-54.8V54.8zm59.9 147.4a1.7 1.7 0 0 1-1.8 1.8h-9v11.3h9a1.8 1.8 0 0 1 0 3.6H42.8a1.8 1.8 0 0 1 0-3.6h9v-11.3h-9a1.8 1.8 0 0 1-1.8-1.8v-35.5a1.7 1.7 0 0 1 1.8-1.8h11.9c.9-25.6 20-39.6 43.2-39.6s42.3 14 43.2 39.6H153a1.7 1.7 0 0 1 1.8 1.8z"/><path d="M128.9 149.2h11.5v11.34h-11.5zm-84.3-3.6h106.6v-31.9H44.6zM97 133.3h43.9a1.8 1.8 0 1 1 0 3.6H97a1.8 1.8 0 1 1 0-3.6z"/><path fill="#fff" d="M97 136.9h43.9a1.8 1.8 0 1 0 0-3.6H97a1.8 1.8 0 1 0 0 3.6z"/></symbol><symbol id="space" viewBox="0 0 189.8 219.2"><path d="M59.3 146.5h24.4l-7.3-9-17.1 9zm73.4-34.7a45.2 45.2 0 0 0 2.2-13.7 39 39 0 0 0-78 0c0 4.7.4 9.5 2.2 13.7zm-64.1 16.5H56.7L40.9 147l2.5 3.6 30.4-16-5.2-6.3zm4.7 0l15.1 18.2h13l15.1-18.2H73.3zm-26.6-12.9h98.5v9.36H46.7z"/><path d="M94.9 0L0 54.8v109.6l94.9 54.8 94.9-54.8V54.8zm57.6 148.1l-4.1 5.9a1.9 1.9 0 0 1-2.4.6l-8.6-4.5H52.2l-8.6 4.5a1.8 1.8 0 0 1-2.3-.6l-4.2-5.9a2 2 0 0 1 .2-2.1l14.9-17.7h-7.3a1.7 1.7 0 0 1-1.8-1.8v-12.9a1.7 1.7 0 0 1 1.8-1.8h10.4a49.4 49.4 0 0 1-2-13.7 42.6 42.6 0 0 1 85.2 0 45.9 45.9 0 0 1-2 13.7h10.4a1.7 1.7 0 0 1 1.8 1.8v12.9a1.7 1.7 0 0 1-1.8 1.8h-9.2l14.8 17.7a1.8 1.8 0 0 1 0 2.1z"/><path d="M121.2 128.3l-5.4 6.3 30.6 16 2.5-3.4-15.8-18.9h-11.9zm-15.1 18.2h24.4l-17.1-9-7.3 9z"/></symbol><symbol id="super-domes" viewBox="0 0 189.8 219.2"><path d="M91.3 69.5c-23 1.4-42.3 18.1-47.9 39.9h19.3zm-46.6 57h48.4v19.98H44.7zm48.4-17.1V73.1l-25.9 36.3h25.9zm3.6 17.1h8.1v19.98h-8.1zm0-57.2v40.1h49.7a53.6 53.6 0 0 0-49.7-40.1z"/><path d="M94.9 0L0 54.8v109.6l94.9 54.8 94.9-54.8V54.8zm77.6 126.5h-23.8v21.8a1.7 1.7 0 0 1-1.8 1.8h-104a1.7 1.7 0 0 1-1.8-1.8v-21.8H17.3a1.8 1.8 0 0 1 0-3.6h13.5v-11.7a1.7 1.7 0 0 1 1.8-1.8h7.1a57 57 0 0 1 55-43.7c.2-.2.4-.2.7 0a57 57 0 0 1 54.8 43.7h7a1.7 1.7 0 0 1 1.8 1.8v11.7h13.5a1.8 1.8 0 1 1 0 3.6z"/><path d="M34.4 113h121v9.9h-121zm74 13.5h36.7v19.98h-36.7z"/></symbol></svg>